<?xml version="1.0"?>
<svg xmlns="http://www.w3.org/2000/svg" xmlns:xlink="http://www.w3.org/1999/xlink" xmlns:svgjs="http://svgjs.com/svgjs" version="1.1" width="512" height="512" x="0" y="0" viewBox="0 0 511.454 511.454" style="enable-background:new 0 0 512 512" xml:space="preserve"><g><g xmlns="http://www.w3.org/2000/svg"><path d="m409.276 101.009c-10.146 0-20.086 1.461-29.663 4.351-38.689-91.627-165.967-107.848-226.336-28.479-74.304-24.657-154.239 33.656-153.262 112.043-.943 55.591 42.278 106.983 96.999 115.763v170.86c0 5.522 4.477 10 10 10h298c5.522 0 10-4.478 10-10v-169.22c131.966-12.114 127.012-200.45-5.738-205.318zm-292.262 364.538v-30.001h278v30.001zm292.262-179.061c-1.236 0-2.519-.029-3.812-.088-5.538-.359-10.561 4.448-10.449 9.99v119.158h-278v-119.577c0-5.147-3.907-9.453-9.03-9.953-50.151-4.889-87.97-46.63-87.97-97.093-.98-67.627 70.79-116.424 133.276-90.82 4.331 1.703 9.27.194 11.906-3.646 51.307-75.841 169.815-59.83 199.168 26.844.9 2.604 2.836 4.724 5.35 5.854 2.514 1.132 5.383 1.175 7.929.12 53.415-22.81 115.022 18.335 114.371 76.473-.001 45.621-37.117 82.738-82.739 82.738z" fill="#ffc107" data-original="#000000" style=""/><path d="m166.614 318.923c-5.523 0-10 4.478-10 10v46.623c.529 13.268 19.476 13.258 20 0v-46.623c0-5.522-4.477-10-10-10z" fill="#ffc107" data-original="#000000" style=""/><path d="m226.214 318.923c-5.523 0-10 4.478-10 10v46.623c.529 13.268 19.476 13.258 20 0v-46.623c0-5.522-4.477-10-10-10z" fill="#ffc107" data-original="#000000" style=""/><path d="m285.815 318.923c-5.522 0-10 4.478-10 10v46.623c.529 13.268 19.476 13.258 20 0v-46.623c0-5.522-4.478-10-10-10z" fill="#ffc107" data-original="#000000" style=""/><path d="m345.414 318.923c-5.522 0-10 4.478-10 10v46.623c.529 13.268 19.476 13.258 20 0v-46.623c0-5.522-4.477-10-10-10z" fill="#ffc107" data-original="#000000" style=""/></g></g></svg>
